<svg width="82" height="18" viewBox="0 0 82 18" fill="none" xmlns="http://www.w3.org/2000/svg">
<path fill-rule="evenodd" clip-rule="evenodd" d="M9.30258 15.3926C10.3535 15.3926 11.1514 15.1396 11.6963 14.6336L12.4943 17.0661C12.1569 17.3645 11.7028 17.5947 11.132 17.7569C10.5611 17.9191 9.91237 18.0001 9.18581 18.0001C7.90135 18.0001 6.90882 17.692 6.20821 17.0758C5.50759 16.4596 5.15729 15.6131 5.15729 14.5363L5.17675 14.1472C3.55495 13.9266 2.28673 13.2455 1.37203 12.1039C0.45734 10.9623 0 9.4639 0 7.60875C0 6.23361 0.252996 5.04983 0.758997 4.05739C1.265 3.06495 1.99155 2.30604 2.93868 1.78063C3.88581 1.25522 5.00808 0.992518 6.30551 0.992518C7.60295 0.992518 8.72197 1.25522 9.66261 1.78063C10.6033 2.30604 11.3266 3.06495 11.8326 4.05739C12.3386 5.04983 12.5916 6.23361 12.5916 7.60875C12.5916 9.48985 12.1277 11.0012 11.2001 12.1428C10.2724 13.2845 8.98472 13.959 7.33697 14.1666C7.38887 14.6207 7.58024 14.9385 7.91108 15.1201C8.24193 15.3018 8.70576 15.3926 9.30258 15.3926ZM3.42412 7.60823C3.42412 8.91851 3.67062 9.91094 4.16365 10.5855C4.65668 11.2601 5.37026 11.5974 6.30441 11.5974C7.23857 11.5974 7.9489 11.2601 8.43544 10.5855C8.92198 9.91094 9.16525 8.91851 9.16525 7.60823C9.16525 6.29795 8.92198 5.30552 8.43544 4.63092C7.9489 3.95632 7.23857 3.61903 6.30441 3.61903C5.37026 3.61903 4.65668 3.95632 4.16365 4.63092C3.67062 5.30552 3.42412 6.29795 3.42412 7.60823ZM24.3019 12.143C24.5485 12.143 24.7496 12.117 24.9053 12.0651L24.6523 13.9138C24.276 14.1213 23.8349 14.2251 23.3289 14.2251C21.9276 14.2251 21.0908 13.7257 20.8183 12.7267C20.2345 13.7257 19.0798 14.2251 17.3542 14.2251C16.3811 14.2251 15.6351 14.0176 15.1161 13.6024C14.5972 13.1873 14.3377 12.584 14.3377 11.7927C14.3377 10.9624 14.6328 10.2911 15.2232 9.77862C15.8135 9.26619 16.7833 8.87376 18.1327 8.60132L20.3318 8.17321V7.82294C20.3318 7.38186 20.2086 7.03159 19.962 6.77213C19.7155 6.51267 19.3782 6.38294 18.95 6.38294C18.457 6.38294 18.0548 6.49969 17.7434 6.73321C17.432 6.96672 17.2309 7.34942 17.1401 7.88132L14.4544 7.10294C14.6231 6.1559 15.0902 5.41969 15.8557 4.89428C16.6212 4.36887 17.6526 4.10617 18.95 4.10617C20.468 4.10617 21.6227 4.41752 22.4142 5.04023C23.2056 5.66294 23.6013 6.59698 23.6013 7.8424V11.384C23.6013 11.89 23.8349 12.143 24.3019 12.143ZM18.5612 12.0845C19.0153 12.0845 19.424 11.958 19.7873 11.705C20.1506 11.4521 20.3322 11.118 20.3322 10.7029V9.86611L18.7558 10.2358C18.3406 10.3396 18.0455 10.4661 17.8703 10.6153C17.6952 10.7645 17.6076 10.9753 17.6076 11.2477C17.6076 11.5202 17.6919 11.7277 17.8606 11.8704C18.0293 12.0131 18.2628 12.0845 18.5612 12.0845ZM28.2283 3.1719C27.5537 3.1719 27.0639 3.04541 26.759 2.79244C26.4541 2.53946 26.3017 2.14055 26.3017 1.59568C26.3017 1.03784 26.4541 0.632435 26.759 0.37946C27.0639 0.126486 27.5537 0 28.2283 0C28.903 0 29.3928 0.126486 29.6977 0.37946C30.0026 0.632435 30.155 1.03784 30.155 1.59568C30.155 2.14055 30.0026 2.53946 29.6977 2.79244C29.3928 3.04541 28.903 3.1719 28.2283 3.1719ZM29.8828 14.0302H26.5744V4.30044H29.8828V14.0302ZM39.6666 13.4854C39.3422 13.7059 38.9303 13.8843 38.4308 14.0205C37.9312 14.1567 37.4285 14.2248 36.9225 14.2248C35.7678 14.2248 34.8855 13.9784 34.2757 13.4854C33.6659 12.9924 33.3546 12.2011 33.3416 11.1113V6.65509H31.6679V4.30049H33.3416V2.12103L36.65 1.20643V4.30049H39.5692V6.65509H36.65V10.5665C36.65 11.4357 37.0782 11.8702 37.9345 11.8702C38.4664 11.8702 38.9335 11.7275 39.3357 11.4421L39.6666 13.4854ZM46.104 4.10617C47.7258 4.10617 48.9876 4.55049 49.8893 5.43915C50.791 6.32781 51.2419 7.56996 51.2419 9.16565C51.2419 10.7613 50.791 12.0035 49.8893 12.8921C48.9876 13.7808 47.7258 14.2251 46.104 14.2251C44.4822 14.2251 43.2205 13.7808 42.3188 12.8921C41.4171 12.0035 40.9662 10.7613 40.9662 9.16565C40.9662 7.56996 41.4171 6.32781 42.3188 5.43915C43.2205 4.55049 44.4822 4.10617 46.104 4.10617ZM46.1043 6.46035C45.4815 6.46035 45.0209 6.6744 44.7225 7.10251C44.4241 7.53062 44.2749 8.21819 44.2749 9.16522C44.2749 10.1123 44.4241 10.7998 44.7225 11.2279C45.0209 11.656 45.4815 11.8701 46.1043 11.8701C46.7271 11.8701 47.1876 11.656 47.486 11.2279C47.7845 10.7998 47.9337 10.1123 47.9337 9.16522C47.9337 8.21819 47.7845 7.53062 47.486 7.10251C47.1876 6.6744 46.7271 6.46035 46.1043 6.46035ZM66.1825 4.10617C67.1686 4.10617 67.9697 4.40455 68.586 5.00131C69.2023 5.59807 69.5104 6.4478 69.5104 7.55051V14.0305H66.202V8.30943C66.202 7.19375 65.7609 6.63591 64.8786 6.63591C64.3596 6.63591 63.9445 6.82402 63.6331 7.20024C63.3217 7.57646 63.166 8.12132 63.166 8.83484V14.0305H59.8575V8.30943C59.8575 7.19375 59.4164 6.63591 58.5342 6.63591C58.0411 6.63591 57.6325 6.82402 57.3081 7.20024C56.9837 7.57646 56.8216 8.14078 56.8216 8.89322V14.0305H53.5131V4.30077H56.4713L56.5686 6.16888C56.8799 5.49428 57.3146 4.98185 57.8725 4.63158C58.4304 4.28131 59.0856 4.10617 59.8381 4.10617C60.5776 4.10617 61.2166 4.27482 61.755 4.61212C62.2935 4.94942 62.6795 5.4359 62.913 6.07158C63.2244 5.4359 63.6687 4.94942 64.2461 4.61212C64.8235 4.27482 65.4689 4.10617 66.1825 4.10617ZM76.8628 4.1063C78.4846 4.1063 79.7463 4.55062 80.648 5.43928C81.5498 6.32793 82.0006 7.57009 82.0006 9.16578C82.0006 10.7615 81.5498 12.0036 80.648 12.8923C79.7463 13.7809 78.4846 14.2253 76.8628 14.2253C75.241 14.2253 73.9792 13.7809 73.0775 12.8923C72.1758 12.0036 71.725 10.7615 71.725 9.16578C71.725 7.57009 72.1758 6.32793 73.0775 5.43928C73.9792 4.55062 75.241 4.1063 76.8628 4.1063ZM76.8624 6.46035C76.2396 6.46035 75.779 6.6744 75.4806 7.10251C75.1822 7.53062 75.033 8.21819 75.033 9.16522C75.033 10.1123 75.1822 10.7998 75.4806 11.2279C75.779 11.656 76.2396 11.8701 76.8624 11.8701C77.4852 11.8701 77.9457 11.656 78.2441 11.2279C78.5426 10.7998 78.6918 10.1123 78.6918 9.16522C78.6918 8.21819 78.5426 7.53062 78.2441 7.10251C77.9457 6.6744 77.4852 6.46035 76.8624 6.46035Z" fill="#2C2C2C"/>
</svg>
